<svg width="9" height="9" viewBox="0 0 9 9" fill="none" xmlns="http://www.w3.org/2000/svg">
<path d="M7.5 3.75C7.5 5.40675 4.5 8.25 4.5 8.25C4.5 8.25 1.5 5.40675 1.5 3.75C1.5 2.95435 1.81607 2.19129 2.37868 1.62868C2.94129 1.06607 3.70435 0.75 4.5 0.75C5.29565 0.75 6.05871 1.06607 6.62132 1.62868C7.18393 2.19129 7.5 2.95435 7.5 3.75Z" fill="#FA712D"/>
<path d="M4.4998 4.04996C4.61915 4.04996 4.73361 4.00255 4.818 3.91816C4.90239 3.83377 4.9498 3.71931 4.9498 3.59996C4.9498 3.48062 4.90239 3.36616 4.818 3.28177C4.73361 3.19737 4.61915 3.14996 4.4998 3.14996C4.38046 3.14996 4.266 3.19737 4.18161 3.28177C4.09722 3.36616 4.0498 3.48062 4.0498 3.59996C4.0498 3.71931 4.09722 3.83377 4.18161 3.91816C4.266 4.00255 4.38046 4.04996 4.4998 4.04996Z" fill="white" stroke="white" stroke-width="1.25" stroke-linecap="round" stroke-linejoin="round"/>
</svg>
