<svg width="20" height="20" viewBox="0 0 20 20" fill="none" xmlns="http://www.w3.org/2000/svg">
<path d="M14.3055 11.1603C14.4519 11.1319 14.6033 11.145 14.7426 11.1981L17.5643 12.2731C17.8745 12.3913 18.0794 12.6888 18.0794 13.0207V15.6258C18.0794 16.9555 16.903 18.0529 15.512 17.7508L15.5115 17.7507C13.2797 17.2646 9.10717 16.0244 6.17417 13.0914C3.35785 10.2751 2.42236 6.39779 2.10885 4.3208L14.3055 11.1603ZM14.3055 11.1603L11.5837 11.6877C9.91159 10.8093 8.91268 9.84346 8.29698 8.43963L8.81286 5.67262C8.83961 5.52914 8.8266 5.38107 8.77524 5.24446M14.3055 11.1603L8.77524 5.24446M8.77524 5.24446L7.71764 2.43148C7.60038 2.11957 7.30205 1.91301 6.96882 1.91301M8.77524 5.24446L6.96882 1.91301M6.96882 1.91301H4.24234M6.96882 1.91301H4.24234M4.24234 1.91301C2.98697 1.91301 1.90505 2.97413 2.10877 4.32029L4.24234 1.91301ZM17.2794 15.6258V13.0207L6.96882 2.71301H4.24234C3.42243 2.71301 2.77697 3.39045 2.89981 4.20091C3.2051 6.22378 4.10642 9.89229 6.73986 12.5257C9.50559 15.2915 13.4896 16.4915 15.6818 16.9691C16.5286 17.153 17.2794 16.493 17.2794 15.6258Z" stroke="#252B5C" stroke-width="1.6" stroke-linecap="round" stroke-linejoin="round"/>
</svg>
