<svg width="20" height="20" viewBox="0 0 20 20" fill="none" xmlns="http://www.w3.org/2000/svg">
<path d="M8.94556 5.0976C9.03978 5.05274 9.14283 5.02949 9.24718 5.02955H13.6236C14.1419 5.02955 14.6252 5.06328 15.067 5.13437C15.1906 5.15408 15.3135 5.17761 15.4357 5.20493C15.6088 5.24313 15.7799 5.28989 15.9484 5.34502C16.1656 5.41755 16.3678 5.50201 16.5537 5.60092C16.7727 4.20319 16.5521 3.25267 15.7964 2.39162C14.9642 1.44361 13.4611 1.03717 11.5377 1.03717H5.95491C5.56185 1.03717 5.22746 1.32333 5.16586 1.71132L2.84148 16.4525C2.79528 16.7437 3.02038 17.0066 3.31453 17.0066H6.76134L8.55703 5.6193C8.57469 5.50738 8.61928 5.40141 8.68696 5.31053C8.75464 5.21966 8.84338 5.14658 8.94556 5.0976Z" fill="white"/>
<path d="M16.4965 5.92785C15.7606 9.7075 13.2415 11.0148 10.0243 11.0148H8.38609C7.99308 11.0148 7.66114 11.301 7.60007 11.6891L6.5233 18.5151C6.48307 18.7695 6.67981 19 6.9372 19H9.84237C10.0088 18.9999 10.1697 18.9405 10.2963 18.8324C10.4228 18.7243 10.5066 18.5746 10.5326 18.4102L10.5609 18.2622L11.1084 14.792L11.1437 14.6002C11.1697 14.4358 11.2535 14.2861 11.38 14.178C11.5065 14.0699 11.6674 14.0105 11.8338 14.0105H12.2686C15.0829 14.0105 17.2865 12.8671 17.9305 9.56048C18.1993 8.17863 18.0602 7.02491 17.3491 6.21455C17.1335 5.9691 16.8656 5.76639 16.5536 5.60092C16.5367 5.70777 16.5184 5.81605 16.4965 5.92785Z" fill="white" fill-opacity="0.75"/>
<path d="M15.7836 5.29385C15.6688 5.26035 15.553 5.23069 15.4363 5.20491C15.3141 5.17804 15.1911 5.15467 15.0676 5.13484C14.6254 5.06327 14.1424 5.02948 13.6237 5.02948H9.24776C9.14333 5.02924 9.04021 5.05269 8.94614 5.09807C8.84385 5.1469 8.755 5.21993 8.68729 5.31083C8.61958 5.40174 8.57505 5.50778 8.55755 5.61977L7.62745 11.5171L7.60059 11.689C7.66177 11.301 7.99365 11.0148 8.38672 11.0148H10.0249C13.2421 11.0148 15.7612 9.70802 16.4971 5.92783C16.519 5.81603 16.5374 5.70769 16.5543 5.60091C16.3679 5.50253 16.1662 5.41753 15.949 5.34549C15.8942 5.32732 15.8391 5.3101 15.7836 5.29385" fill="white"/>
</svg>
