<svg width="20" height="20" viewBox="0 0 20 20" fill="none" xmlns="http://www.w3.org/2000/svg">
<path d="M15.7964 2.39156C14.9646 1.44355 13.4611 1.03711 11.5377 1.03711H5.95539C5.76509 1.03712 5.58103 1.10501 5.4363 1.22858C5.29158 1.35216 5.19568 1.52331 5.16586 1.71126L2.84148 16.453C2.79528 16.7437 3.02038 17.0069 3.31501 17.0069H6.76134L7.62687 11.5171L7.60001 11.689C7.66167 11.3009 7.99355 11.0147 8.38656 11.0147H10.0242C13.2415 11.0147 15.7606 9.70797 16.4965 5.92779C16.5184 5.81598 16.5373 5.70717 16.5536 5.60086C16.4607 5.55167 16.4607 5.55167 16.5536 5.60086C16.7728 4.20367 16.5521 3.25261 15.7964 2.39156Z" fill="#27346A"/>
<path d="M8.94556 5.09754C9.03978 5.05268 9.14283 5.02943 9.24718 5.02949H13.6236C14.1419 5.02949 14.6252 5.06322 15.067 5.13431C15.1906 5.15402 15.3135 5.17755 15.4357 5.20487C15.6088 5.24307 15.7799 5.28982 15.9484 5.34496C16.1656 5.41749 16.3678 5.50195 16.5537 5.60086C16.7727 4.20313 16.5521 3.25261 15.7964 2.39156C14.9642 1.44355 13.4611 1.03711 11.5377 1.03711H5.95491C5.56185 1.03711 5.22746 1.32327 5.16586 1.71126L2.84148 16.4525C2.79528 16.7436 3.02038 17.0065 3.31453 17.0065H6.76134L8.55703 5.61924C8.57469 5.50731 8.61928 5.40135 8.68696 5.31047C8.75464 5.2196 8.84338 5.14652 8.94556 5.09754Z" fill="#003087"/>
<path d="M16.4965 5.928C15.7606 9.70765 13.2415 11.0149 10.0243 11.0149H8.38609C7.99308 11.0149 7.66114 11.3012 7.60007 11.6892L6.5233 18.5152C6.48307 18.7696 6.67981 19.0001 6.9372 19.0001H9.84237C10.0088 19.0001 10.1697 18.9407 10.2963 18.8326C10.4228 18.7245 10.5066 18.5748 10.5326 18.4104L10.5609 18.2624L11.1084 14.7921L11.1437 14.6004C11.1697 14.436 11.2535 14.2863 11.38 14.1782C11.5065 14.0701 11.6674 14.0107 11.8338 14.0106H12.2686C15.0829 14.0106 17.2865 12.8673 17.9305 9.56063C18.1993 8.17878 18.0602 7.02507 17.3491 6.2147C17.1335 5.96925 16.8656 5.76654 16.5536 5.60107C16.5367 5.70792 16.5184 5.8162 16.4965 5.928Z" fill="#009CDE"/>
<path d="M15.7836 5.29367C15.6688 5.26017 15.553 5.2305 15.4363 5.20473C15.3141 5.17786 15.1911 5.15449 15.0676 5.13465C14.6254 5.06308 14.1424 5.0293 13.6237 5.0293H9.24776C9.14333 5.02906 9.04021 5.05251 8.94614 5.09788C8.84385 5.14671 8.755 5.21974 8.68729 5.31065C8.61958 5.40155 8.57505 5.50759 8.55755 5.61958L7.62745 11.517L7.60059 11.6889C7.66177 11.3008 7.99365 11.0146 8.38672 11.0146H10.0249C13.2421 11.0146 15.7612 9.70783 16.4971 5.92765C16.519 5.81585 16.5374 5.70751 16.5543 5.60072C16.3679 5.50235 16.1662 5.41735 15.949 5.3453C15.8942 5.32713 15.8391 5.30992 15.7836 5.29367" fill="#012169"/>
</svg>
