<svg width="9" height="9" viewBox="0 0 9 9" fill="none" xmlns="http://www.w3.org/2000/svg">
<path d="M3.22009 3.0885L4.19434 1.1265C4.2227 1.06972 4.26632 1.02196 4.3203 0.988583C4.37428 0.955204 4.4365 0.937523 4.49997 0.937523C4.56344 0.937523 4.62565 0.955204 4.67963 0.988583C4.73362 1.02196 4.77723 1.06972 4.80559 1.1265L5.77984 3.0885L7.95784 3.405C8.02066 3.41371 8.07977 3.43991 8.12842 3.4806C8.17706 3.5213 8.21329 3.57485 8.23296 3.63515C8.25263 3.69544 8.25495 3.76006 8.23965 3.82161C8.22436 3.88316 8.19207 3.93917 8.14647 3.98325L6.57072 5.5095L6.94272 7.66575C6.99034 7.9425 6.69784 8.15325 6.44772 8.02275L4.49997 7.00425L2.55184 8.02275C2.30209 8.15363 2.00959 7.9425 2.05722 7.66538L2.42922 5.50913L0.853467 3.98288C0.808087 3.93877 0.775991 3.88281 0.760829 3.82137C0.745666 3.75993 0.748044 3.69546 0.767693 3.63531C0.787342 3.57515 0.823473 3.52171 0.87198 3.48106C0.920487 3.44042 0.979424 3.41419 1.04209 3.40538L3.22009 3.0885Z" fill="#FFC42D"/>
</svg>
