<svg width="20" height="20" viewBox="0 0 20 20" fill="none" xmlns="http://www.w3.org/2000/svg">
<path d="M12.5 4.1665C12.5 2.78579 11.3807 1.6665 10 1.6665C8.61929 1.6665 7.5 2.78579 7.5 4.1665V9.1665C7.5 10.5472 8.61929 11.6665 10 11.6665C11.3807 11.6665 12.5 10.5472 12.5 9.1665V4.1665Z" stroke="#A1A5C1" stroke-width="1.3"/>
<path d="M4.1665 8.33301V9.16634C4.1665 10.7134 4.78109 12.1972 5.87505 13.2911C6.96901 14.3851 8.45274 14.9997 9.99984 14.9997C11.5469 14.9997 13.0307 14.3851 14.1246 13.2911C15.2186 12.1972 15.8332 10.7134 15.8332 9.16634V8.33301" stroke="#A1A5C1" stroke-width="1.3" stroke-linecap="round" stroke-linejoin="round"/>
<path d="M10 18.3333H12.5M10 15V18.3333V15ZM10 18.3333H7.5H10Z" stroke="#A1A5C1" stroke-width="1.3" stroke-linecap="round" stroke-linejoin="round"/>
</svg>
