<svg width="159" height="179" viewBox="0 0 159 179" fill="none" xmlns="http://www.w3.org/2000/svg">
<path fill-rule="evenodd" clip-rule="evenodd" d="M83.7292 0.958244L153.906 36.7555C155.236 37.4337 156.375 38.4436 157.217 39.691C158.059 40.9383 158.576 42.3823 158.72 43.8881C159.055 47.4141 166.035 130.768 84.1165 177.832C82.8195 178.584 81.355 178.986 79.8623 179C78.3696 179.014 76.8981 178.64 75.5876 177.913C46.0236 161.567 27.9099 140.511 16.8649 119.941C23.8581 117.276 41.8401 109.159 62.7506 99.4247L67.3528 139.513C67.3918 139.861 67.542 140.192 67.787 140.472C68.032 140.753 68.3627 140.971 68.7432 141.103C69.1238 141.236 69.5399 141.278 69.9465 141.225C70.3532 141.172 70.7351 141.026 71.0509 140.802L81.3236 133.558C81.886 133.158 82.2642 132.603 82.392 131.99L92.1305 85.7019C108.567 77.9698 124.264 70.4815 135.317 65.1874C136.464 64.6583 137.392 63.8432 137.974 62.8523C138.556 61.8615 138.765 60.743 138.572 59.6482C138.379 58.5534 137.794 57.5353 136.896 56.7319C135.997 55.9285 134.829 55.3785 133.55 55.1565L107.663 50.4197C105.486 50.0191 103.232 50.0201 101.056 50.4228C98.8792 50.8254 96.8302 51.6202 95.048 52.7533L16.8521 100.922L8.32249 100.606C-2.61457 69.7171 0.349429 44.0729 0.411538 43.6017C0.781212 40.6484 2.58558 38.08 5.19971 36.7376L75.8516 0.940347C77.0752 0.318923 78.4247 -0.00308537 79.7925 2.22814e-05C81.1602 0.00312993 82.5083 0.331266 83.7292 0.958244ZM17.3862 73.0588L41.0134 78.8405L66.9828 62.8538L29.7134 63.7594C29.3485 63.7763 28.9948 63.8722 28.6862 64.038L16.8931 69.7849C16.5262 69.9571 16.2288 70.2187 16.0393 70.5359C15.8497 70.853 15.7768 71.211 15.8299 71.5636C15.883 71.9162 16.0597 72.2472 16.3372 72.5138C16.6146 72.7803 16.98 72.9702 17.3862 73.0588Z" fill="white" fill-opacity="0.8"/>
</svg>
