<svg width="24" height="24" viewBox="0 0 24 24" fill="none" xmlns="http://www.w3.org/2000/svg">
<path d="M8.58724 8.236L11.1852 3.004C11.2609 2.85259 11.3772 2.72523 11.5211 2.63622C11.6651 2.54721 11.831 2.50006 12.0002 2.50006C12.1695 2.50006 12.3354 2.54721 12.4793 2.63622C12.6233 2.72523 12.7396 2.85259 12.8152 3.004L15.4132 8.236L21.2212 9.08C21.3888 9.10323 21.5464 9.17309 21.6761 9.28161C21.8058 9.39013 21.9024 9.53294 21.9549 9.69373C22.0073 9.85452 22.0135 10.0268 21.9727 10.191C21.932 10.3551 21.8458 10.5045 21.7242 10.622L17.5222 14.692L18.5142 20.442C18.6412 21.18 17.8612 21.742 17.1942 21.394L12.0002 18.678L6.80524 21.394C6.13924 21.743 5.35924 21.18 5.48624 20.441L6.47824 14.691L2.27624 10.621C2.15522 10.5034 2.06964 10.3542 2.0292 10.1903C1.98877 10.0265 1.99511 9.85457 2.04751 9.69415C2.0999 9.53373 2.19625 9.39122 2.32561 9.28284C2.45496 9.17445 2.61212 9.10452 2.77924 9.081L8.58724 8.236Z" stroke="white" stroke-width="1.6" stroke-linecap="round" stroke-linejoin="round"/>
</svg>
