<svg width="20" height="20" viewBox="0 0 20 20" fill="none" xmlns="http://www.w3.org/2000/svg">
<path d="M14.6858 15.2C13.445 16.3189 11.8018 17 9.99955 17C8.08684 17 6.3533 16.2329 5.08984 14.9895" stroke="#252B5C" stroke-width="1.6" stroke-linecap="round"/>
<path d="M14.3773 14.8413C14.2468 14.6792 14.1071 14.5236 13.9586 14.375C12.8646 13.2811 11.3809 12.6665 9.83381 12.6665C8.28671 12.6665 6.80298 13.2811 5.70902 14.375C5.51264 14.5714 5.3317 14.7804 5.16699 15" stroke="#252B5C" stroke-width="1.6" stroke-linecap="round" stroke-linejoin="round"/>
<path d="M10 12C10.7956 12 11.5587 11.6839 12.1213 11.1213C12.6839 10.5587 13 9.79565 13 9C13 8.20435 12.6839 7.44129 12.1213 6.87868C11.5587 6.31607 10.7956 6 10 6C9.20435 6 8.44129 6.31607 7.87868 6.87868C7.31607 7.44129 7 8.20435 7 9C7 9.79565 7.31607 10.5587 7.87868 11.1213C8.44129 11.6839 9.20435 12 10 12V12Z" stroke="#252B5C" stroke-width="1.6" stroke-linecap="round" stroke-linejoin="round"/>
</svg>
