<svg width="22" height="22" viewBox="0 0 22 22" fill="none" xmlns="http://www.w3.org/2000/svg">
<path d="M3.66667 7.79183H5.27083M5.27083 7.79183C5.69628 7.79183 6.10431 7.96084 6.40515 8.26168C6.70599 8.56252 6.875 8.97054 6.875 9.396C6.875 9.82145 6.70599 10.2295 6.40515 10.5303C6.10431 10.8312 5.69628 11.0002 5.27083 11.0002H2.75M5.27083 7.79183C5.69628 7.79183 6.10431 7.62282 6.40515 7.32198C6.70599 7.02114 6.875 6.61311 6.875 6.18766C6.875 5.76221 6.70599 5.35419 6.40515 5.05335C6.10431 4.75251 5.69628 4.5835 5.27083 4.5835H2.75" stroke="#252B5C" stroke-width="1.4" stroke-linecap="round" stroke-linejoin="round"/>
<path d="M19.8 14.3003C19.8 16.5737 16.5674 18.4441 12.4207 18.6761M3.30005 14.3003C3.30005 16.5316 6.41413 18.3747 10.45 18.6615L7.15005 20.9003M10.45 18.7003L8.25005 15.6203" stroke="#252B5C" stroke-width="1.4" stroke-linecap="round" stroke-linejoin="round"/>
<path d="M12.8334 4.5835H11.9167C11.1874 4.5835 10.4879 4.87323 9.9722 5.38895C9.45648 5.90468 9.16675 6.60415 9.16675 7.3335V9.16683M9.16675 9.16683C9.16675 9.65306 9.3599 10.1194 9.70372 10.4632C10.0475 10.807 10.5139 11.0002 11.0001 11.0002H11.4584C11.9446 11.0002 12.411 10.807 12.7548 10.4632C13.0986 10.1194 13.2917 9.65306 13.2917 9.16683V8.7085C13.2917 8.22227 13.0986 7.75595 12.7548 7.41213C12.411 7.06832 11.9446 6.87516 11.4584 6.87516H11.0001C10.5139 6.87516 10.0475 7.06832 9.70372 7.41213C9.3599 7.75595 9.16675 8.22227 9.16675 8.7085V9.16683Z" stroke="#252B5C" stroke-width="1.4" stroke-linecap="round" stroke-linejoin="round"/>
<path d="M15.5833 7.79183V6.41683C15.5833 5.9306 15.7764 5.46428 16.1202 5.12047C16.464 4.77665 16.9304 4.5835 17.4166 4.5835H17.8749C18.3611 4.5835 18.8275 4.77665 19.1713 5.12047C19.5151 5.46428 19.7083 5.9306 19.7083 6.41683V9.16683C19.7083 9.65306 19.5151 10.1194 19.1713 10.4632C18.8275 10.807 18.3611 11.0002 17.8749 11.0002H17.4166C16.9304 11.0002 16.464 10.807 16.1202 10.4632C15.7764 10.1194 15.5833 9.65306 15.5833 9.16683V7.79183Z" stroke="#252B5C" stroke-width="1.4" stroke-linecap="round" stroke-linejoin="round"/>
<ellipse cx="19.25" cy="1.6501" rx="0.549999" ry="0.55" fill="#252B5C" stroke="#252B5C" stroke-width="1.4"/>
</svg>
