<svg width="20" height="20" viewBox="0 0 20 20" fill="none" xmlns="http://www.w3.org/2000/svg">
<path d="M1.66675 7.49984H18.3334M1.66675 7.49984V4.6665C1.66675 4.5339 1.71943 4.40672 1.81319 4.31295C1.90696 4.21918 2.03414 4.1665 2.16675 4.1665H17.8334C17.966 4.1665 18.0932 4.21918 18.187 4.31295C18.2807 4.40672 18.3334 4.5339 18.3334 4.6665V7.49984H1.66675ZM1.66675 7.49984V15.3332C1.66675 15.4658 1.71943 15.593 1.81319 15.6867C1.90696 15.7805 2.03414 15.8332 2.16675 15.8332H17.8334C17.966 15.8332 18.0932 15.7805 18.187 15.6867C18.2807 15.593 18.3334 15.4658 18.3334 15.3332V7.49984H1.66675Z" stroke="white" stroke-width="1.6" stroke-linecap="round" stroke-linejoin="round"/>
</svg>
