<svg width="20" height="20" viewBox="0 0 20 20" fill="none" xmlns="http://www.w3.org/2000/svg">
<path d="M6.66667 5.83333H13.3333M17.5 5.83333H13.3333H17.5ZM2.5 5.83333H6.66667H2.5ZM6.66667 5.83333V3C6.66667 2.86739 6.71934 2.74021 6.81311 2.64645C6.90688 2.55268 7.03406 2.5 7.16667 2.5H12.8333C12.9659 2.5 13.0931 2.55268 13.1869 2.64645C13.2807 2.74021 13.3333 2.86739 13.3333 3V5.83333H6.66667Z" stroke="#252B5C" stroke-width="1.6" stroke-linecap="round" stroke-linejoin="round"/>
<path d="M15.8332 6V17C15.8332 17.1326 15.7805 17.2598 15.6867 17.3536C15.593 17.4473 13.6324 17.5 13.4998 17.5H6.99982C6.86721 17.5 4.40672 17.4473 4.31295 17.3536C4.21918 17.2598 4.1665 17.1326 4.1665 17V6" stroke="#252B5C" stroke-width="1.6" stroke-linecap="round" stroke-linejoin="round"/>
</svg>
