<svg width="20" height="20" viewBox="0 0 20 20" fill="none" xmlns="http://www.w3.org/2000/svg">
<path d="M16.6667 8.33317C16.6667 12.0148 10 18.3332 10 18.3332C10 18.3332 3.33334 12.0148 3.33334 8.33317C3.33334 6.56506 4.03572 4.86937 5.28596 3.61913C6.53621 2.36888 8.2319 1.6665 10 1.6665C11.7681 1.6665 13.4638 2.36888 14.7141 3.61913C15.9643 4.86937 16.6667 6.56506 16.6667 8.33317V8.33317Z" stroke="#53587A" stroke-width="1.25"/>
<path d="M10 9C10.2652 9 10.5196 8.89464 10.7071 8.70711C10.8946 8.51957 11 8.26522 11 8C11 7.73478 10.8946 7.48043 10.7071 7.29289C10.5196 7.10536 10.2652 7 10 7C9.73478 7 9.48043 7.10536 9.29289 7.29289C9.10536 7.48043 9 7.73478 9 8C9 8.26522 9.10536 8.51957 9.29289 8.70711C9.48043 8.89464 9.73478 9 10 9Z" fill="#53587A" stroke="#53587A" stroke-width="1.25" stroke-linecap="round" stroke-linejoin="round"/>
</svg>
