<svg width="24" height="20" viewBox="0 0 24 20" fill="none" xmlns="http://www.w3.org/2000/svg">
<path d="M9.11222 5.14128L5.97 12.8786H3.92006L2.37375 6.70348C2.28 6.32406 2.19853 6.18443 1.91325 6.02399C1.44694 5.76252 0.676875 5.51799 0 5.36588L0.0456562 5.14128H3.34603C3.76603 5.14128 4.14422 5.42993 4.24041 5.92974L5.05744 10.4074L7.07456 5.14128H9.11222ZM11.8835 5.14128L10.2801 12.8786H8.34056L9.94416 5.14128H11.8835ZM17.1443 10.3524C17.1524 8.31068 14.4093 8.19737 14.4272 7.28515C14.4338 7.00781 14.6897 6.71258 15.2499 6.6371C15.5274 6.60004 16.2941 6.57052 17.1625 6.98353L17.5023 5.34178C17.0357 5.1676 16.4352 5 15.6883 5C13.7711 5 12.4225 6.05108 12.4117 7.55735C12.3992 8.67153 13.375 9.29248 14.1089 9.66358C14.8648 10.0425 15.1183 10.2861 15.1148 10.6248C15.1094 11.1439 14.5111 11.3737 13.9549 11.3823C12.9795 11.3982 12.4141 11.1101 11.9631 10.8933L11.611 12.5894C12.0648 12.804 12.901 12.9905 13.7672 13C15.8053 13 17.1383 11.9609 17.1443 10.3524ZM22.2068 12.8786H24L22.4334 5.14128H20.779C20.4059 5.14128 20.0923 5.36481 19.9532 5.70843L17.0432 12.8786H19.0797L19.4837 11.7228H21.9718L22.2068 12.8786ZM20.0422 10.1373L21.0633 7.23164L21.6499 10.1373H20.0422Z" fill="white"/>
</svg>
