<svg width="20" height="20" viewBox="0 0 20 20" fill="none" xmlns="http://www.w3.org/2000/svg">
<path d="M5.8335 10H14.1668" stroke="#252B5C" stroke-width="1.6" stroke-linecap="round" stroke-linejoin="round"/>
<path d="M5.8335 6.66666H10.8335" stroke="#252B5C" stroke-width="1.6" stroke-linecap="round" stroke-linejoin="round"/>
<path d="M2.5 16.9083V4.16667C2.5 3.72464 2.67559 3.30072 2.98816 2.98816C3.30072 2.67559 3.72464 2.5 4.16667 2.5H15.8333C16.2754 2.5 16.6993 2.67559 17.0118 2.98816C17.3244 3.30072 17.5 3.72464 17.5 4.16667V12.5C17.5 12.942 17.3244 13.366 17.0118 13.6785C16.6993 13.9911 16.2754 14.1667 15.8333 14.1667H6.63417C6.38436 14.1667 6.13776 14.2229 5.91259 14.3311C5.68743 14.4392 5.48946 14.5967 5.33333 14.7917L3.39083 17.22C3.32619 17.301 3.23797 17.3599 3.13837 17.3886C3.03877 17.4173 2.93272 17.4143 2.83488 17.3801C2.73705 17.3459 2.65227 17.2821 2.59228 17.1976C2.53228 17.1131 2.50004 17.012 2.5 16.9083V16.9083Z" stroke="#252B5C" stroke-width="1.6"/>
</svg>
