<svg width="20" height="20" viewBox="0 0 20 20" fill="none" xmlns="http://www.w3.org/2000/svg">
<path d="M16.6666 8.33317C16.6666 12.0148 9.99998 18.3332 9.99998 18.3332C9.99998 18.3332 3.33331 12.0148 3.33331 8.33317C3.33331 6.56506 4.03569 4.86937 5.28593 3.61913C6.53618 2.36888 8.23187 1.6665 9.99998 1.6665C11.7681 1.6665 13.4638 2.36888 14.714 3.61913C15.9643 4.86937 16.6666 6.56506 16.6666 8.33317Z" fill="#FA712D"/>
<path d="M10 9C10.2652 9 10.5196 8.89464 10.7071 8.70711C10.8946 8.51957 11 8.26522 11 8C11 7.73478 10.8946 7.48043 10.7071 7.29289C10.5196 7.10536 10.2652 7 10 7C9.73478 7 9.48043 7.10536 9.29289 7.29289C9.10536 7.48043 9 7.73478 9 8C9 8.26522 9.10536 8.51957 9.29289 8.70711C9.48043 8.89464 9.73478 9 10 9Z" fill="#F5F4F8" stroke="#F5F4F8" stroke-width="1.6" stroke-linecap="round" stroke-linejoin="round"/>
</svg>
