<svg width="20" height="20" viewBox="0 0 20 20" fill="none" xmlns="http://www.w3.org/2000/svg">
<path fill-rule="evenodd" clip-rule="evenodd" d="M10 18.3332C10 18.3332 16.6667 12.0148 16.6667 8.33317C16.6667 6.56506 15.9643 4.86937 14.7141 3.61913C13.4638 2.36888 11.7681 1.6665 10 1.6665C8.2319 1.6665 6.53621 2.36888 5.28596 3.61913C4.03572 4.86937 3.33334 6.56506 3.33334 8.33317C3.33334 12.0148 10 18.3332 10 18.3332ZM8.85098 6.85071C9.15573 6.54596 9.56905 6.37476 10 6.37476C10.431 6.37476 10.8443 6.54596 11.1491 6.85071C11.4538 7.15545 11.625 7.56878 11.625 7.99976C11.625 8.43073 11.4538 8.84406 11.1491 9.1488C10.8443 9.45355 10.431 9.62476 10 9.62476C9.56905 9.62476 9.15573 9.45355 8.85098 9.1488C8.54624 8.84406 8.37503 8.43073 8.37503 7.99976C8.37503 7.56878 8.54624 7.15545 8.85098 6.85071Z" fill="white"/>
</svg>
