<svg width="30" height="30" viewBox="0 0 30 30" fill="none" xmlns="http://www.w3.org/2000/svg">
<path d="M0 15C0 9.3923 0 6.58846 1.20577 4.5C1.99569 3.13183 3.13183 1.99569 4.5 1.20577C6.58846 0 9.3923 0 15 0C20.6077 0 23.4115 0 25.5 1.20577C26.8682 1.99569 28.0043 3.13183 28.7942 4.5C30 6.58846 30 9.3923 30 15C30 20.6077 30 23.4115 28.7942 25.5C28.0043 26.8682 26.8682 28.0043 25.5 28.7942C23.4115 30 20.6077 30 15 30C9.3923 30 6.58846 30 4.5 28.7942C3.13183 28.0043 1.99569 26.8682 1.20577 25.5C0 23.4115 0 20.6077 0 15Z" fill="#A1A5C1"/>
</svg>
