<svg width="16" height="16" viewBox="0 0 16 16" fill="none" xmlns="http://www.w3.org/2000/svg">
<path d="M5.7245 5.49067L7.4565 2.00267C7.50692 1.90172 7.58446 1.81682 7.68043 1.75748C7.7764 1.69814 7.887 1.66671 7.99983 1.66671C8.11267 1.66671 8.22327 1.69814 8.31924 1.75748C8.41521 1.81682 8.49275 1.90172 8.54317 2.00267L10.2752 5.49067L14.1472 6.05333C14.2589 6.06882 14.3639 6.11539 14.4504 6.18774C14.5369 6.26009 14.6013 6.35529 14.6363 6.46248C14.6712 6.56968 14.6754 6.68454 14.6482 6.79397C14.621 6.90339 14.5636 7.00297 14.4825 7.08133L11.6812 9.79467L12.3425 13.628C12.4272 14.12 11.9072 14.4947 11.4625 14.2627L7.99983 12.452L4.5365 14.2627C4.0925 14.4953 3.5725 14.12 3.65717 13.6273L4.3185 9.794L1.51717 7.08067C1.43649 7.00225 1.37943 6.90277 1.35248 6.79354C1.32552 6.68431 1.32975 6.56971 1.36468 6.46276C1.39961 6.35582 1.46384 6.26081 1.55008 6.18855C1.63631 6.1163 1.74109 6.06968 1.8525 6.054L5.7245 5.49067Z" fill="#FFC42D"/>
</svg>
