<svg width="20" height="20" viewBox="0 0 20 20" fill="none" xmlns="http://www.w3.org/2000/svg">
<path d="M7.64284 4.10746L8.82136 5.28598L7.64284 4.10746ZM11.1784 7.643L12.3569 8.82151L11.1784 7.643ZM14.7139 11.1785L15.8924 12.357L14.7139 11.1785ZM1.75029 10C1.43773 10.3126 1.26213 10.7365 1.26213 11.1785C1.26213 11.6206 1.43773 12.0445 1.75029 12.357L3.51806 14.1248C3.83062 13.8122 4.25454 13.6367 4.69657 13.6367C5.13859 13.6367 5.56252 13.8122 5.87508 14.1248C6.18764 14.4374 6.36323 14.8613 6.36323 15.3033C6.36323 15.7453 6.18764 16.1693 5.87508 16.4818L7.64285 18.2496C7.95541 18.5622 8.37933 18.7378 8.82136 18.7378C9.26338 18.7378 9.68731 18.5622 9.99987 18.2496L18.2494 10C18.562 9.68746 18.7376 9.26354 18.7376 8.82151C18.7376 8.37948 18.562 7.95556 18.2494 7.643L16.4817 5.87523C16.1691 6.18779 15.7452 6.36339 15.3032 6.36339C14.8611 6.36339 14.4372 6.18779 14.1247 5.87523C13.8121 5.56267 13.6365 5.13875 13.6365 4.69672C13.6365 4.25469 13.8121 3.83077 14.1247 3.51821L12.3569 1.75044C12.0443 1.43788 11.6204 1.26229 11.1784 1.26229C10.7364 1.26229 10.3124 1.43788 9.99987 1.75044L1.75029 10Z" stroke="#252B5C" stroke-width="1.6" stroke-linecap="round" stroke-linejoin="round"/>
</svg>
