<svg width="20" height="20" viewBox="0 0 20 20" fill="none" xmlns="http://www.w3.org/2000/svg">
<path d="M16.6663 8.33334C16.6663 12.015 9.99967 18.3333 9.99967 18.3333C9.99967 18.3333 3.33301 12.015 3.33301 8.33334C3.33301 6.56523 4.03539 4.86954 5.28563 3.61929C6.53587 2.36905 8.23156 1.66667 9.99967 1.66667C11.7678 1.66667 13.4635 2.36905 14.7137 3.61929C15.964 4.86954 16.6663 6.56523 16.6663 8.33334V8.33334Z" stroke="#53587A" stroke-width="1.25"/>
<path d="M10 8.99992C10.2652 8.99992 10.5196 8.89457 10.7071 8.70703C10.8946 8.51949 11 8.26514 11 7.99992C11 7.73471 10.8946 7.48035 10.7071 7.29282C10.5196 7.10528 10.2652 6.99992 10 6.99992C9.73478 6.99992 9.48043 7.10528 9.29289 7.29282C9.10536 7.48035 9 7.73471 9 7.99992C9 8.26514 9.10536 8.51949 9.29289 8.70703C9.48043 8.89457 9.73478 8.99992 10 8.99992Z" fill="#53587A" stroke="#53587A" stroke-width="1.25" stroke-linecap="round" stroke-linejoin="round"/>
</svg>
