<svg width="123" height="72" viewBox="0 0 123 72" fill="none" xmlns="http://www.w3.org/2000/svg">
<path d="M121.698 47.9571L104.386 70.4157C103.7 71.3053 102.418 71.4588 101.542 70.756L54.2876 32.8592C53.3312 32.0922 51.9167 32.3545 51.299 33.4135L49.8829 35.8411C49.3603 36.737 48.241 37.0869 47.3011 36.6483L42.2494 34.2909C41.7317 34.0493 41.1355 34.0398 40.6104 34.2648L38.8885 35.0028C38.2845 35.2617 37.5919 35.2084 37.0346 34.86L31.3206 31.2888C30.4972 30.7741 30.1604 29.7436 30.5211 28.842L34.1919 19.6649C34.5945 18.6584 34.1249 17.5142 33.1314 17.0806L8.28396 6.2381C7.68262 5.9757 7.24755 5.43589 7.11888 4.79253L7.03214 4.35885C6.90115 3.7039 6.45285 3.15706 5.8363 2.90016L0.802918 0.802918" stroke="#FDB54A" stroke-width="1.6" stroke-linecap="round"/>
</svg>
