<svg width="20" height="20" viewBox="0 0 20 20" fill="none" xmlns="http://www.w3.org/2000/svg">
<path fill-rule="evenodd" clip-rule="evenodd" d="M10.8088 6.06226C10.8088 5.27679 11.4456 4.64004 12.2311 4.64004C13.0165 4.64004 13.6533 5.27679 13.6533 6.06226C13.6533 6.84773 13.0165 7.48448 12.2311 7.48448C11.4456 7.48448 10.8088 6.84773 10.8088 6.06226ZM9.29315 6.7741L2.71991 6.77402C2.27808 6.77402 1.91992 6.41584 1.91992 5.97401C1.91993 5.53219 2.2781 5.17402 2.71993 5.17402L9.34145 5.1741C9.7208 3.93841 10.871 3.04004 12.2311 3.04004C13.5909 3.04004 14.7409 3.93809 15.1205 5.17344L17.2976 5.17324C17.7395 5.1732 18.0977 5.53134 18.0977 5.97317C18.0977 6.415 17.7396 6.7732 17.2978 6.77324L15.1691 6.77344C14.8493 8.0994 13.6552 9.08448 12.2311 9.08448C10.8071 9.08448 9.6132 8.09973 9.29315 6.7741Z" fill="white"/>
<path fill-rule="evenodd" clip-rule="evenodd" d="M9.20877 13.8845C9.20877 13.0991 8.57202 12.4623 7.78654 12.4623C7.00107 12.4623 6.36432 13.0991 6.36432 13.8845C6.36432 14.67 7.00107 15.3067 7.78654 15.3067C8.57202 15.3067 9.20877 14.67 9.20877 13.8845ZM10.7245 14.5964L17.2977 14.5963C17.7395 14.5963 18.0977 14.2381 18.0977 13.7963C18.0977 13.3545 17.7395 12.9963 17.2976 12.9963L10.6762 12.9964C10.2968 11.7607 9.14659 10.8623 7.78654 10.8623C6.42675 10.8623 5.2767 11.7604 4.89714 12.9957L2.71994 12.9955C2.27811 12.9955 1.91991 13.3536 1.91987 13.7954C1.91983 14.2373 2.27797 14.5955 2.7198 14.5955L4.84848 14.5957C5.16829 15.9217 6.36238 16.9067 7.78654 16.9067C9.21047 16.9067 10.4044 15.922 10.7245 14.5964Z" fill="white"/>
</svg>
