<svg width="20" height="20" viewBox="0 0 20 20" fill="none" xmlns="http://www.w3.org/2000/svg">
<path d="M18.5547 8.14832C18.5353 8.06095 18.4974 7.97877 18.4434 7.90733C18.3895 7.8359 18.3209 7.77687 18.2422 7.73425L16.3828 6.703C16.2832 6.50089 16.171 6.3052 16.0469 6.11707L16.086 3.99207C16.0867 3.90294 16.069 3.81462 16.0341 3.73262C15.9991 3.65062 15.9476 3.57671 15.8828 3.5155C14.957 2.6761 13.8621 2.04475 12.6719 1.66394C12.5864 1.63729 12.4963 1.62908 12.4074 1.63985C12.3185 1.65063 12.2329 1.68014 12.1563 1.72644L10.336 2.82019C10.1094 2.81238 9.89064 2.81238 9.66408 2.82019L7.84377 1.72644C7.76714 1.68014 7.68155 1.65063 7.59266 1.63985C7.50378 1.62908 7.41362 1.63729 7.32814 1.66394C6.13632 2.04504 5.04098 2.67932 4.11721 3.52332C4.05185 3.58242 3.9999 3.65483 3.96487 3.73569C3.92983 3.81654 3.91251 3.90396 3.91408 3.99207L3.95314 6.11707C3.82814 6.30457 3.71877 6.49988 3.60939 6.703L1.75002 7.73425C1.67246 7.77732 1.60509 7.8366 1.55251 7.90805C1.49993 7.97951 1.46338 8.06146 1.44533 8.14832C1.17968 9.3684 1.17968 10.6314 1.44533 11.8514C1.46474 11.9388 1.50268 12.021 1.55659 12.0924C1.61051 12.1639 1.67913 12.2229 1.75783 12.2655L3.61721 13.2968C3.71688 13.4989 3.82908 13.6946 3.95314 13.8827L3.91408 16.0077C3.91337 16.0968 3.93104 16.1851 3.96599 16.2671C4.00093 16.3491 4.05241 16.423 4.11721 16.4843C5.04302 17.3237 6.13789 17.955 7.32814 18.3358C7.41362 18.3625 7.50378 18.3707 7.59266 18.3599C7.68155 18.3491 7.76714 18.3196 7.84377 18.2733L9.66408 17.1796H10.336L12.1641 18.2733C12.2591 18.3358 12.3707 18.3685 12.4844 18.3671C12.5479 18.3643 12.6109 18.3538 12.6719 18.3358C13.8637 17.9547 14.9591 17.3204 15.8828 16.4764C15.9482 16.4173 16.0001 16.3449 16.0352 16.2641C16.0702 16.1832 16.0875 16.0958 16.086 16.0077L16.0469 13.8827C16.1719 13.6952 16.2813 13.4999 16.3906 13.2968L18.25 12.2655C18.3276 12.2224 18.3949 12.1632 18.4475 12.0917C18.5001 12.0203 18.5367 11.9383 18.5547 11.8514C18.8204 10.6314 18.8204 9.3684 18.5547 8.14832ZM17.3828 11.3124L15.6094 12.2968C15.4969 12.3621 15.407 12.4602 15.3516 12.578C15.2231 12.8443 15.0742 13.1002 14.9063 13.3436C14.8349 13.4528 14.7969 13.5804 14.7969 13.7108L14.8281 15.7343C14.1555 16.307 13.3855 16.7542 12.5547 17.0546L10.8125 16.0077C10.7153 15.9511 10.6047 15.9214 10.4922 15.9218H10.4453C10.1489 15.9452 9.85112 15.9452 9.55471 15.9218C9.42662 15.9148 9.2992 15.9446 9.18752 16.0077L7.44533 17.0546C6.61555 16.7556 5.8457 16.3112 5.17189 15.7421L5.20314 13.7108C5.2031 13.5804 5.16509 13.4528 5.09377 13.3436C4.92873 13.0984 4.77997 12.8427 4.64846 12.578C4.59077 12.4618 4.50139 12.3643 4.39064 12.2968L2.61721 11.3124C2.46091 10.4444 2.46091 9.5554 2.61721 8.68738L4.39064 7.703C4.50315 7.63761 4.59308 7.53951 4.64846 7.42175C4.77699 7.15548 4.92587 6.89951 5.09377 6.65613C5.16509 6.54694 5.2031 6.41936 5.20314 6.28894L5.17189 4.2655C5.84451 3.69279 6.61456 3.24558 7.44533 2.94519L9.18752 3.99207C9.29887 4.05602 9.42654 4.0859 9.55471 4.078C9.85112 4.05456 10.1489 4.05456 10.4453 4.078C10.5734 4.085 10.7008 4.05518 10.8125 3.99207L12.5547 2.94519C13.3845 3.24413 14.1543 3.68858 14.8281 4.25769L14.7969 6.28894C14.7969 6.41936 14.8349 6.54694 14.9063 6.65613C15.0713 6.90131 15.2201 7.15707 15.3516 7.42175C15.4093 7.53795 15.4986 7.63546 15.6094 7.703L17.3828 8.68738C17.5391 9.5554 17.5391 10.4444 17.3828 11.3124ZM10 5.62488C9.13473 5.62488 8.28886 5.88147 7.5694 6.3622C6.84993 6.84293 6.28918 7.52621 5.95805 8.32564C5.62691 9.12507 5.54027 10.0047 5.70908 10.8534C5.87789 11.7021 6.29457 12.4816 6.90643 13.0935C7.51828 13.7053 8.29783 14.122 9.1465 14.2908C9.99517 14.4596 10.8748 14.373 11.6743 14.0419C12.4737 13.7107 13.157 13.15 13.6377 12.4305C14.1184 11.711 14.375 10.8652 14.375 9.99988C14.375 8.83956 13.9141 7.72676 13.0936 6.90629C12.2731 6.08581 11.1603 5.62488 10 5.62488ZM10 13.1249C9.38195 13.1249 8.77777 12.9416 8.26386 12.5982C7.74996 12.2548 7.34942 11.7668 7.1129 11.1958C6.87637 10.6247 6.81449 9.99641 6.93506 9.39022C7.05564 8.78403 7.35327 8.22721 7.79031 7.79017C8.22735 7.35313 8.78417 7.0555 9.39036 6.93492C9.99655 6.81435 10.6249 6.87623 11.1959 7.11275C11.7669 7.34928 12.255 7.74982 12.5984 8.26372C12.9417 8.77763 13.125 9.38181 13.125 9.99988C13.125 10.8287 12.7958 11.6235 12.2097 12.2096C11.6237 12.7956 10.8288 13.1249 10 13.1249Z" fill="#252B5C"/>
</svg>
