<svg width="20" height="20" viewBox="0 0 20 20" fill="none" xmlns="http://www.w3.org/2000/svg">
<path d="M13.9962 12.5793L13.9968 12.6407C13.9978 13.4902 13.6924 14.309 13.1411 14.9349L13.143 14.9323C12.5688 15.5912 11.7921 16.0213 10.9466 16.1484L10.9267 16.1511V17.7246C10.9267 17.7977 10.8989 17.8677 10.8493 17.9193C10.7997 17.971 10.7325 18 10.6624 18H10.6515H10.6522H9.49569C9.42313 17.9991 9.35378 17.9687 9.30247 17.9153C9.25116 17.8618 9.22196 17.7896 9.22113 17.714V16.1511C8.83546 16.0974 8.45651 16.0004 8.09089 15.8617L8.12865 15.8744C7.58253 15.6841 7.07011 15.4016 6.61186 15.0383L6.62466 15.0483C6.48469 14.9428 6.35031 14.8295 6.2221 14.7089L6.22658 14.7129C6.15533 14.6418 6.10541 14.5885 6.07682 14.5529C6.03055 14.505 6.00323 14.4407 6.00027 14.3728C5.99731 14.3049 6.01891 14.2383 6.06082 14.1862L6.06018 14.1869L6.94274 12.9814C6.96619 12.9499 6.99588 12.9241 7.02979 12.9057C7.0637 12.8873 7.10103 12.8767 7.13922 12.8747H7.13986C7.17781 12.8674 7.21694 12.8711 7.25304 12.8853C7.28913 12.8995 7.32081 12.9238 7.34466 12.9554L7.3453 12.956L7.36194 12.9734C7.9406 13.5254 8.6488 13.9085 9.41505 14.0842L9.44449 14.0902C9.63521 14.1355 9.85409 14.1615 10.0787 14.1615L10.1184 14.1622C10.5606 14.1622 10.9702 14.0182 11.3075 13.7728L11.3005 13.7775C11.4706 13.6577 11.6084 13.4944 11.7007 13.3033C11.793 13.1123 11.8368 12.8997 11.8278 12.686V12.6887C11.8278 12.5133 11.7798 12.35 11.6973 12.2119L11.6992 12.2159C11.6212 12.0783 11.5249 11.9528 11.4131 11.8432L11.4125 11.8426C11.2637 11.7126 11.1001 11.6022 10.9254 11.5139L10.9114 11.5072C10.6827 11.3854 10.4949 11.2901 10.3482 11.2212C10.2014 11.1523 9.97292 11.0556 9.66273 10.9311C9.44001 10.836 9.26423 10.7615 9.13537 10.7078C9.00652 10.654 8.83073 10.5751 8.60801 10.4711C8.38529 10.367 8.20673 10.2748 8.07233 10.1944C7.93793 10.1139 7.77644 10.0083 7.58786 9.87765C7.42265 9.76676 7.26812 9.63948 7.12642 9.4976L7.12706 9.49827C6.99845 9.3627 6.87669 9.22027 6.76226 9.07155L6.75394 9.06088C6.63274 8.90783 6.53218 8.73824 6.45506 8.55682L6.44994 8.54282C6.3756 8.35867 6.31672 8.16815 6.27394 7.97341L6.26946 7.94941C6.22049 7.72587 6.19602 7.49727 6.1965 7.26799V7.25199V7.23199C6.1965 6.39855 6.51714 5.64246 7.03746 5.09172L7.03682 5.09239C7.61679 4.46423 8.37468 4.04619 9.19937 3.89957L9.22241 3.89624V2.28604V2.28337C9.22241 2.20536 9.25377 2.13468 9.30369 2.08468C9.32836 2.0579 9.35798 2.0366 9.39075 2.02205C9.42352 2.00749 9.45878 2 9.49441 2H10.6637C10.8096 2 10.928 2.12335 10.928 2.27537V2.2867V2.28604V3.85757C11.28 3.89624 11.6013 3.96891 11.9091 4.07293L11.8752 4.06292C12.169 4.15627 12.416 4.25828 12.6534 4.37696L12.6202 4.3623C12.8301 4.47098 13.0086 4.58232 13.1776 4.70634L13.1648 4.697C13.3355 4.82235 13.4468 4.90859 13.4989 4.9557C13.5509 5.00282 13.5938 5.04438 13.6275 5.08039C13.6736 5.12167 13.7033 5.17922 13.7111 5.24198C13.7189 5.30474 13.7042 5.36829 13.6698 5.42043L13.6704 5.41976L12.9779 6.72392C12.9606 6.76401 12.9332 6.79846 12.8986 6.82359C12.864 6.84872 12.8235 6.86358 12.7814 6.86661H12.7808C12.7402 6.87541 12.6981 6.87434 12.6579 6.86347C12.6178 6.8526 12.5805 6.83223 12.5491 6.80393H12.5498C12.5327 6.78615 12.4913 6.75059 12.4256 6.69725C12.3599 6.64391 12.2485 6.56502 12.0915 6.46056C11.9392 6.35883 11.7808 6.2673 11.6173 6.18652L11.5904 6.17452C11.3934 6.08015 11.1886 6.0045 10.9786 5.94849L10.9517 5.94249C10.7131 5.87446 10.4669 5.83992 10.2195 5.83981H10.2189C9.74492 5.8172 9.2765 5.95369 8.88257 6.2292L8.89089 6.22386C8.67301 6.37468 8.51085 6.59823 8.43107 6.85777C8.35128 7.11732 8.35861 7.39741 8.45185 7.65204L8.44929 7.64404C8.50817 7.79072 8.59393 7.91474 8.70145 8.01408L8.70273 8.01475C8.80577 8.11543 8.91585 8.21211 9.03105 8.30212L9.04129 8.30945C9.17889 8.40813 9.33697 8.50081 9.50273 8.57816L9.52193 8.58616C9.73612 8.69017 9.90892 8.77062 10.0403 8.82752C10.1717 8.88442 10.3718 8.9662 10.6406 9.07288C10.9436 9.19201 11.175 9.2858 11.335 9.35425C11.495 9.42271 11.7122 9.52694 11.9866 9.66696C12.2177 9.78002 12.4404 9.91084 12.6528 10.0583L12.6342 10.0463C12.8326 10.193 13.0054 10.3397 13.1699 10.4964L13.1661 10.4924C13.3434 10.6537 13.4944 10.8404 13.6147 11.0491L13.6205 11.0598C13.7267 11.2552 13.8182 11.4825 13.8848 11.7205L13.8906 11.7432C13.9603 11.9866 14 12.2666 14 12.556V12.584V12.5827L13.9962 12.5793Z" fill="#252B5C"/>
</svg>
