<svg width="20" height="20" viewBox="0 0 20 20" fill="none" xmlns="http://www.w3.org/2000/svg">
<path d="M1.66666 7.49984H18.3333M1.66666 7.49984V4.6665C1.66666 4.5339 1.71933 4.40672 1.8131 4.31295C1.90687 4.21918 2.03405 4.1665 2.16666 4.1665H17.8333C17.9659 4.1665 18.0931 4.21918 18.1869 4.31295C18.2806 4.40672 18.3333 4.5339 18.3333 4.6665V7.49984H1.66666ZM1.66666 7.49984V15.3332C1.66666 15.4658 1.71933 15.593 1.8131 15.6867C1.90687 15.7805 2.03405 15.8332 2.16666 15.8332H17.8333C17.9659 15.8332 18.0931 15.7805 18.1869 15.6867C18.2806 15.593 18.3333 15.4658 18.3333 15.3332V7.49984H1.66666Z" stroke="#252B5C" stroke-width="1.6" stroke-linecap="round" stroke-linejoin="round"/>
</svg>
