<svg width="24" height="24" viewBox="0 0 24 24" fill="none" xmlns="http://www.w3.org/2000/svg">
<path d="M9.1718 4.92896L10.586 6.34318L9.1718 4.92896ZM13.4144 9.17161L14.8287 10.5858L13.4144 9.17161ZM17.6571 13.4142L19.0713 14.8285L17.6571 13.4142ZM2.10074 12C1.72566 12.3751 1.51495 12.8838 1.51495 13.4142C1.51495 13.9447 1.72566 14.4534 2.10074 14.8285L4.22206 16.9498C4.59713 16.5747 5.10584 16.364 5.63627 16.364C6.1667 16.364 6.67541 16.5747 7.05048 16.9498C7.42556 17.3249 7.63627 17.8336 7.63627 18.364C7.63627 18.8944 7.42556 19.4031 7.05049 19.7782L9.17181 21.8995C9.54688 22.2746 10.0556 22.4853 10.586 22.4853C11.1165 22.4853 11.6252 22.2746 12.0002 21.8995L21.8997 12C22.2748 11.625 22.4855 11.1163 22.4855 10.5858C22.4855 10.0554 22.2748 9.54668 21.8997 9.17161L19.7784 7.05029C19.4033 7.42536 18.8946 7.63607 18.3642 7.63607C17.8338 7.63607 17.3251 7.42536 16.95 7.05029C16.5749 6.67521 16.3642 6.1665 16.3642 5.63607C16.3642 5.10564 16.5749 4.59693 16.95 4.22186L14.8287 2.10054C14.4536 1.72546 13.9449 1.51475 13.4144 1.51475C12.884 1.51475 12.3753 1.72546 12.0002 2.10054L2.10074 12Z" stroke="white" stroke-width="1.6" stroke-linecap="round" stroke-linejoin="round"/>
</svg>
