<svg width="87" height="64" viewBox="0 0 87 64" fill="none" xmlns="http://www.w3.org/2000/svg">
<path d="M86.9998 41.1217C86.9998 45.1186 85.9467 49.0457 83.9457 52.5121C81.9447 55.9781 79.0655 58.8627 75.5952 60.878C72.1245 62.8936 68.1834 63.9695 64.1647 63.9989C60.1457 64.0284 56.1892 63.0105 52.6892 61.0462C50.3361 62.7657 47.5374 63.7795 44.6238 63.9679C41.7101 64.1563 38.8029 63.5113 36.2459 62.1096C33.0738 63.3671 29.6887 64.0089 26.2739 63.9999C11.7861 63.9999 0 52.6313 0 38.6565C0 24.6818 11.7861 13.3131 26.2739 13.3131H26.28C29.1478 8.55441 33.4008 4.77369 38.4762 2.47111C43.5516 0.168525 49.2101 -0.547404 54.7037 0.418032C60.1973 1.38347 65.2665 3.98478 69.2411 7.87782C73.2153 11.7709 75.908 16.7722 76.9621 22.2202C80.0668 24.3094 82.6064 27.1265 84.3568 30.423C86.1074 33.7195 87.0153 37.3938 86.9998 41.1217ZM52.4563 55.1823C52.9911 55.1819 53.5133 55.3437 53.9534 55.6459C55.9067 56.9807 58.1096 57.9124 60.4315 58.3859C62.7533 58.8595 65.147 58.8649 67.4711 58.4023C69.7949 57.9393 72.002 57.0178 73.9618 55.692C75.9215 54.3662 77.5939 52.663 78.88 50.6829C80.166 48.7032 81.0397 46.4867 81.4499 44.1651C81.8597 41.8435 81.7968 39.4636 81.2659 37.1667C80.7347 34.8694 79.7456 32.7016 78.3574 30.7911C76.9689 28.8808 75.2092 27.2667 73.1828 26.0444C72.8503 25.8436 72.5668 25.5723 72.3522 25.2498C72.1377 24.9274 71.9972 24.5618 71.9412 24.1791C71.2566 19.5439 69.1116 15.2439 65.8149 11.8975C62.5178 8.55114 58.2388 6.33066 53.5932 5.5554C48.9472 4.7801 44.174 5.48997 39.9591 7.58287C35.7446 9.6758 32.3061 13.0439 30.1376 17.2031C29.9031 17.6548 29.5413 18.0287 29.0964 18.2791C28.6515 18.5295 28.1429 18.6455 27.6328 18.6128C27.1109 18.5808 26.6782 18.5654 26.2716 18.5654C14.6949 18.5654 5.27643 27.5791 5.27643 38.6578C5.27643 49.7365 14.6962 58.7499 26.2716 58.7499C29.4071 58.7598 32.5068 58.0863 35.3525 56.7772C35.7687 56.5859 36.2278 56.5055 36.6847 56.544C37.1415 56.5827 37.5803 56.7391 37.9579 56.9976C39.8664 58.3029 42.1708 58.9094 44.4788 58.714C46.7865 58.5186 48.9547 57.5333 50.6138 55.9259C51.107 55.4485 51.7681 55.1816 52.4563 55.1823Z" fill="#4466E3"/>
<path d="M29.7005 29.3743H25.7768C25.6207 29.3743 25.471 29.4359 25.3606 29.5457C25.2502 29.6555 25.1882 29.8044 25.1882 29.9596V39.1297H25.1982L30.2884 34.0674V29.96C30.2885 29.8048 30.2266 29.6559 30.1164 29.5461C30.0061 29.4362 29.8565 29.3744 29.7005 29.3743Z" fill="#4466E3"/>
<path d="M45.7704 25.097C45.1737 24.5036 44.3641 24.1702 43.5204 24.1702C42.6763 24.1702 41.867 24.5036 41.2704 25.097L13.5326 52.6829C16.648 54.9484 20.3154 56.3453 24.1556 56.7285C27.9958 57.112 31.8693 56.4683 35.3754 54.8638C35.7916 54.6728 36.2504 54.5927 36.7072 54.6312C37.1637 54.67 37.6025 54.8263 37.9801 55.0845C39.8883 56.3898 42.193 56.9964 44.5007 56.8009C46.8084 56.6055 48.9766 55.6199 50.6354 54.0125C51.0735 53.5893 51.6457 53.3297 52.2543 53.2788C52.8632 53.2279 53.4708 53.388 53.974 53.7325C56.9779 55.7901 60.5481 56.8743 64.1953 56.8358C67.8426 56.7974 71.389 55.6388 74.3484 53.5184L45.7704 25.097ZM43.2849 48.988C43.2849 49.1069 43.2372 49.221 43.1528 49.3052C43.0681 49.3892 42.9534 49.4366 42.8338 49.4366H39.1686C39.049 49.4366 38.9343 49.3892 38.8496 49.3052C38.7649 49.221 38.7175 49.1069 38.7175 48.988V45.3429C38.7175 45.224 38.7649 45.11 38.8496 45.0257C38.9343 44.9417 39.049 44.8943 39.1686 44.8943H42.8338C42.9534 44.8943 43.0681 44.9417 43.1528 45.0257C43.2372 45.11 43.2849 45.224 43.2849 45.3429V48.988ZM43.2849 43.4676C43.2849 43.5865 43.2372 43.7005 43.1528 43.7848C43.0681 43.8691 42.9534 43.9162 42.8338 43.9162H39.1686C39.049 43.9162 38.9343 43.8691 38.8496 43.7848C38.7649 43.7005 38.7175 43.5865 38.7175 43.4676V39.8224C38.7175 39.7036 38.7649 39.5895 38.8496 39.5053C38.9343 39.4213 39.049 39.3739 39.1686 39.3739H42.8338C42.9534 39.3739 43.0681 39.4213 43.1528 39.5053C43.2372 39.5895 43.2849 39.7036 43.2849 39.8224V43.4676ZM49.1634 48.988C49.1634 49.1069 49.1157 49.221 49.0313 49.3052C48.9466 49.3892 48.8319 49.4366 48.7124 49.4366H45.0471C44.9276 49.4366 44.8129 49.3892 44.7282 49.3052C44.6434 49.221 44.5961 49.1069 44.5961 48.988V45.3429C44.5961 45.224 44.6434 45.11 44.7282 45.0257C44.8129 44.9417 44.9276 44.8943 45.0471 44.8943H48.7124C48.8319 44.8943 48.9466 44.9417 49.0313 45.0257C49.1157 45.11 49.1634 45.224 49.1634 45.3429V48.988ZM49.1634 43.4676C49.1634 43.5865 49.1157 43.7005 49.0313 43.7848C48.9466 43.8691 48.8319 43.9162 48.7124 43.9162H45.0471C44.9276 43.9162 44.8129 43.8691 44.7282 43.7848C44.6434 43.7005 44.5961 43.5865 44.5961 43.4676V39.8224C44.5961 39.7036 44.6434 39.5895 44.7282 39.5053C44.8129 39.4213 44.9276 39.3739 45.0471 39.3739H48.7124C48.8319 39.3739 48.9466 39.4213 49.0313 39.5053C49.1157 39.5895 49.1634 39.7036 49.1634 39.8224V43.4676Z" fill="#4466E3"/>
</svg>
