<svg width="25" height="34" viewBox="0 0 25 34" fill="none" xmlns="http://www.w3.org/2000/svg">
<path fill-rule="evenodd" clip-rule="evenodd" d="M12.5001 6.69995C11.2934 6.69995 10.1361 7.17932 9.28279 8.03262C8.4295 8.88591 7.95012 10.0432 7.95012 11.25C7.95012 12.4567 8.4295 13.614 9.28279 14.4673C9.60409 14.7886 9.9685 15.0569 10.3624 15.2665C8.93865 15.6161 7.624 16.3493 6.57012 17.4031C6.37476 17.5985 6.19041 17.8028 6.01747 18.0152C5.936 18.0542 5.8598 18.1077 5.79279 18.1758C5.48288 18.4907 5.48694 18.9973 5.80185 19.3072C7.52474 21.0027 9.8909 22.0501 12.5001 22.0501C14.9585 22.0501 17.2015 21.1202 18.8937 19.5942C19.2218 19.2983 19.2479 18.7925 18.952 18.4644C18.8862 18.3913 18.8099 18.3332 18.7275 18.2904C18.6981 18.2054 18.6538 18.1239 18.5942 18.0499C18.4132 17.8251 18.2194 17.6091 18.0135 17.4031C17.0276 16.4173 15.8136 15.7122 14.4956 15.339C14.9442 15.1201 15.3578 14.8269 15.7175 14.4673C16.5707 13.614 17.0501 12.4567 17.0501 11.25C17.0501 10.0432 16.5707 8.88591 15.7175 8.03262C14.8642 7.17932 13.7069 6.69995 12.5001 6.69995Z" fill="#4466E3"/>
<circle cx="12.5" cy="31.5" r="2.5" fill="#4466E3"/>
</svg>
