<svg width="20" height="20" viewBox="0 0 20 20" fill="none" xmlns="http://www.w3.org/2000/svg">
<path d="M15.7969 2.39162C14.9651 1.44361 13.4616 1.03717 11.5382 1.03717H5.95588C5.76558 1.03718 5.58152 1.10507 5.43679 1.22865C5.29207 1.35222 5.19617 1.52337 5.16635 1.71132L2.84197 16.4531C2.79577 16.7438 3.02086 17.007 3.3155 17.007H6.76183L7.62735 11.5171L7.60049 11.6891C7.66216 11.301 7.99404 11.0148 8.38704 11.0148H10.0247C13.242 11.0148 15.7611 9.70803 16.497 5.92785C16.5188 5.81604 16.5378 5.70723 16.5541 5.60092C16.4612 5.55173 16.4612 5.55173 16.5541 5.60092C16.7732 4.20373 16.5526 3.25267 15.7969 2.39162Z" fill="#FA712D"/>
<path d="M8.94605 5.0976C9.04027 5.05274 9.14332 5.02949 9.24767 5.02955H13.6241C14.1423 5.02955 14.6257 5.06328 15.0674 5.13437C15.191 5.15408 15.314 5.17761 15.4362 5.20493C15.6093 5.24313 15.7804 5.28989 15.9489 5.34502C16.1661 5.41755 16.3683 5.50201 16.5542 5.60092C16.7732 4.20319 16.5526 3.25267 15.7969 2.39162C14.9647 1.44361 13.4616 1.03717 11.5382 1.03717H5.9554C5.56234 1.03717 5.22795 1.32333 5.16634 1.71132L2.84197 16.4525C2.79577 16.7437 3.02086 17.0066 3.31502 17.0066H6.76183L8.55752 5.6193C8.57518 5.50738 8.61976 5.40141 8.68744 5.31053C8.75513 5.21966 8.84387 5.14658 8.94605 5.0976Z" fill="#003087"/>
<path d="M16.497 5.92787C15.7611 9.70751 13.242 11.0148 10.0247 11.0148H8.38657C7.99357 11.0148 7.66162 11.301 7.60056 11.6891L6.52379 18.5151C6.48356 18.7695 6.6803 19 6.93769 19H9.84286C10.0093 19 10.1702 18.9405 10.2967 18.8324C10.4233 18.7243 10.5071 18.5746 10.5331 18.4102L10.5614 18.2622L11.1089 14.792L11.1442 14.6002C11.1702 14.4359 11.254 14.2862 11.3805 14.1781C11.507 14.07 11.6679 14.0105 11.8343 14.0105H12.2691C15.0834 14.0105 17.287 12.8671 17.931 9.56049C18.1997 8.17864 18.0607 7.02493 17.3496 6.21456C17.134 5.96911 16.8661 5.7664 16.5541 5.60094C16.5372 5.70778 16.5189 5.81606 16.497 5.92787Z" fill="#009CDE"/>
<path d="M15.7836 5.29385C15.6688 5.26035 15.553 5.23069 15.4363 5.20491C15.3141 5.17804 15.1911 5.15467 15.0676 5.13484C14.6254 5.06327 14.1424 5.02948 13.6237 5.02948H9.24776C9.14333 5.02924 9.04021 5.05269 8.94614 5.09807C8.84385 5.1469 8.755 5.21993 8.68729 5.31083C8.61958 5.40174 8.57505 5.50778 8.55755 5.61977L7.62745 11.5171L7.60059 11.689C7.66177 11.301 7.99365 11.0148 8.38672 11.0148H10.0249C13.2421 11.0148 15.7612 9.70802 16.4971 5.92783C16.519 5.81603 16.5374 5.70769 16.5543 5.60091C16.3679 5.50253 16.1662 5.41753 15.949 5.34549C15.8942 5.32732 15.8391 5.3101 15.7836 5.29385" fill="#012169"/>
</svg>
