<svg width="25" height="25" viewBox="0 0 25 25" fill="none" xmlns="http://www.w3.org/2000/svg">
<path d="M22 9.53642C22.0033 10.9897 21.4401 12.3877 20.4287 13.437C18.1097 15.8275 15.8601 18.3199 13.4556 20.6225C12.9036 21.1419 12.0287 21.123 11.5014 20.58L4.57108 13.438C2.47631 11.2789 2.47631 7.79389 4.57108 5.6358C5.06617 5.11918 5.66163 4.70789 6.32137 4.42687C6.98111 4.14585 7.69138 4.00094 8.40913 4.00094C9.12687 4.00094 9.83714 4.14585 10.4969 4.42687C11.1566 4.70789 11.7521 5.11918 12.2472 5.6358L12.4999 5.89458L12.7516 5.6358C13.2477 5.12041 13.8434 4.70987 14.5029 4.42879C15.1623 4.14771 15.8721 4.00186 16.5897 4C18.0337 4 19.4141 4.58934 20.4277 5.6358C21.4395 6.68495 22.003 8.083 22 9.53642V9.53642Z" stroke="#252B5C" stroke-width="1.67" stroke-linejoin="round"/>
</svg>
