<svg width="20" height="20" viewBox="0 0 20 20" fill="none" xmlns="http://www.w3.org/2000/svg">
<path d="M2.5 2.5L17.5 17.5" stroke="#252B5C" stroke-width="1.6" stroke-linecap="round" stroke-linejoin="round"/>
<path d="M12.5 8.74996V4.16663C12.5 3.50358 12.2366 2.8677 11.7678 2.39886C11.2989 1.93002 10.663 1.66663 10 1.66663C9.33696 1.66663 8.70107 1.93002 8.23223 2.39886C7.76339 2.8677 7.5 3.50358 7.5 4.16663V4.58329M7.5 7.49996C7.5 8.60503 7.93899 9.66484 8.72039 10.4462C9.50179 11.2276 10.5616 11.6666 11.6667 11.6666V11.6666L7.5 7.49996Z" stroke="#252B5C" stroke-width="1.6" stroke-linecap="round" stroke-linejoin="round"/>
<path d="M4.1665 8.33325V9.16659C4.1665 10.7137 4.78109 12.1974 5.87505 13.2914C6.96901 14.3853 8.45274 14.9999 9.99984 14.9999C11.5469 14.9999 13.0307 14.3853 14.1246 13.2914C15.2186 12.1974 15.8332 10.7137 15.8332 9.16659V8.33325" stroke="#252B5C" stroke-width="1.6" stroke-linecap="round" stroke-linejoin="round"/>
<path d="M10 18.3333H12.5M10 15V18.3333V15ZM10 18.3333H7.5H10Z" stroke="#252B5C" stroke-width="1.6" stroke-linecap="round" stroke-linejoin="round"/>
</svg>
