<svg width="20" height="20" viewBox="0 0 20 20" fill="none" xmlns="http://www.w3.org/2000/svg">
<path d="M2.72035 16.4462L2.16393 17.0026L2.72034 16.4462C2.55781 16.2836 2.4665 16.0632 2.4665 15.8333V7.5C2.4665 7.27015 2.55781 7.04971 2.72034 6.88717C2.88288 6.72464 3.10332 6.63333 3.33317 6.63333H3.74984C4.13277 6.63333 4.51045 6.54418 4.85296 6.37292C5.19547 6.20167 5.49341 5.95302 5.72317 5.64667L7.48317 3.3H12.5165L14.2765 5.64667L14.9165 5.16667L14.2765 5.64667C14.5063 5.95302 14.8042 6.20167 15.1467 6.37292L15.5045 5.65738L15.1467 6.37292C15.4892 6.54418 15.8669 6.63333 16.2498 6.63333H16.6665C16.8964 6.63333 17.1168 6.72464 17.2793 6.88717C17.4419 7.04971 17.5332 7.27014 17.5332 7.5V15.8333C17.5332 16.0632 17.4419 16.2836 17.2793 16.4462C17.1168 16.6087 16.8964 16.7 16.6665 16.7H3.33317C3.10332 16.7 2.88288 16.6087 2.72035 16.4462Z" stroke="#53587A" stroke-width="1.6" stroke-linecap="round" stroke-linejoin="round"/>
<path d="M11.7912 12.6247C11.3161 13.0998 10.6717 13.3667 9.99984 13.3667C9.32796 13.3667 8.68359 13.0998 8.2085 12.6247C7.73341 12.1496 7.4665 11.5052 7.4665 10.8333C7.4665 10.1615 7.73341 9.51709 8.2085 9.042C8.68359 8.5669 9.32796 8.3 9.99984 8.3C10.6717 8.3 11.3161 8.5669 11.7912 9.042C12.2663 9.51709 12.5332 10.1615 12.5332 10.8333C12.5332 11.5052 12.2663 12.1496 11.7912 12.6247Z" stroke="#53587A" stroke-width="1.6" stroke-linecap="round" stroke-linejoin="round"/>
</svg>
