<svg width="20" height="20" viewBox="0 0 20 20" fill="none" xmlns="http://www.w3.org/2000/svg">
<path d="M13.3333 10H6.66667M13.3333 10H14.5C14.6326 10 14.7598 10.0527 14.8536 10.1465C14.9473 10.2403 15 10.3674 15 10.5V16.1667C15 16.2993 14.9473 16.4265 14.8536 16.5203C14.7598 16.614 14.6326 16.6667 14.5 16.6667H5.5C5.36739 16.6667 5.24021 16.614 5.14645 16.5203C5.05268 16.4265 5 16.2993 5 16.1667V10.5C5 10.3674 5.05268 10.2403 5.14645 10.1465C5.24021 10.0527 5.36739 10 5.5 10H6.66667H13.3333ZM13.3333 10V6.66671C13.3333 5.55587 12.6667 3.33337 10 3.33337C7.33333 3.33337 6.66667 5.55587 6.66667 6.66671V10H13.3333Z" stroke="#252B5C" stroke-width="1.6" stroke-linecap="round" stroke-linejoin="round"/>
</svg>
