<svg width="11" height="12" viewBox="0 0 11 12" fill="none" xmlns="http://www.w3.org/2000/svg">
<path d="M9.28006 4.23388L9.28006 4.23217C9.28118 3.69031 9.07298 3.1693 8.69951 2.7784C8.3277 2.39132 7.82426 2.17565 7.30005 2.17551C7.03851 2.17626 6.77978 2.22992 6.53932 2.33331C6.29871 2.43676 6.08131 2.5879 5.90019 2.77773L5.89872 2.77927L5.89871 2.77926L5.78794 2.89413C5.71264 2.97221 5.60886 3.01636 5.50039 3.01647C5.39192 3.01657 5.28805 2.97261 5.21261 2.89467L5.10142 2.7798L5.0988 2.7771L5.09882 2.77709C4.91827 2.58704 4.70119 2.4358 4.46077 2.33249C4.22036 2.22918 3.96157 2.17592 3.70008 2.17592C3.4386 2.17592 3.17981 2.22918 2.93939 2.33249C2.69897 2.4358 2.48189 2.58704 2.30135 2.77709L2.29958 2.77894C1.52694 3.58196 1.52684 4.88398 2.29963 5.68751L9.28006 4.23388ZM9.28006 4.23388C9.28127 4.77566 9.07323 5.29664 8.69992 5.68758C8.35457 6.04672 8.01624 6.40712 7.6796 6.76573C7.00848 7.48063 6.34409 8.18837 5.64419 8.86462C5.56038 8.94324 5.42788 8.93958 5.34897 8.85767C5.34895 8.85765 5.34892 8.85762 5.3489 8.85759L2.29964 5.68753L9.28006 4.23388Z" fill="white" stroke="white" stroke-width="0.8" stroke-linejoin="round"/>
</svg>
