<svg width="25" height="34" viewBox="0 0 25 34" fill="none" xmlns="http://www.w3.org/2000/svg">
<path fill-rule="evenodd" clip-rule="evenodd" d="M15 21.599V18.5C15 18.0353 15 17.803 14.9616 17.6098C14.8038 16.8164 14.1836 16.1962 13.3902 16.0384C13.197 16 12.9647 16 12.5 16C12.0353 16 11.803 16 11.6098 16.0384C10.8164 16.1962 10.1962 16.8164 10.0384 17.6098C10 17.803 10 18.0353 10 18.5V21.599H8.71689C8.36288 21.599 7.82231 21.5317 7.28244 21.3815C6.75731 21.2353 6.1184 20.98 5.66727 20.5327C5.37443 20.2423 5.12946 19.9974 4.78219 19.4184L4.76746 19.3938C4.56931 19.0635 4.42947 18.8304 4.30196 18.4621C4.17426 18.0933 4.13032 17.7471 4.06766 17.2534L4.06766 17.2533L4.06766 17.2533L4.06038 17.196L3.31847 11.3603C3.31449 11.3289 3.31248 11.2973 3.31248 11.2657C3.31248 10.1746 3.82064 9.14631 4.68666 8.47908L4.68699 8.47883L10.2897 4.15829L12.4992 4.15825V4.375H12.4993V4.15825L14.7087 4.15829L20.3115 8.47883L20.3118 8.47908C21.1779 9.14631 21.686 10.1746 21.686 11.2657C21.686 11.2973 21.684 11.3289 21.68 11.3603L20.9381 17.196L20.9308 17.2533L20.9308 17.2533C20.8682 17.7471 20.8242 18.0933 20.6965 18.4621C20.569 18.8304 20.4292 19.0635 20.231 19.3938L20.2163 19.4184C19.869 19.9974 19.6241 20.2423 19.3312 20.5327C18.8801 20.98 18.2412 21.2353 17.7161 21.3815C17.1762 21.5317 16.6356 21.599 16.2816 21.599H15ZM10.2898 4.15825L12.4992 4.15823V3.41713L12.4677 3.41699C11.6796 3.41699 10.9132 3.67744 10.2898 4.15825ZM14.7087 4.15825L12.4993 4.15823V3.41713L12.5308 3.41699C13.3189 3.41699 14.0853 3.67744 14.7087 4.15825Z" fill="#4466E3"/>
<circle cx="12.5" cy="31.5" r="2.5" fill="#4466E3"/>
</svg>
