<svg width="43" height="46" viewBox="0 0 43 46" fill="none" xmlns="http://www.w3.org/2000/svg">
<path d="M21.5 1.5C23.7733 1.5 25.9535 2.40306 27.5609 4.01051C29.1684 5.61797 30.0714 7.79814 30.0714 10.0714V15.7857C30.0714 18.059 29.1684 20.2392 27.5609 21.8466C25.9535 23.4541 23.7733 24.3571 21.5 24.3571C19.2267 24.3571 17.0465 23.4541 15.4391 21.8466C13.8316 20.2392 12.9286 18.059 12.9286 15.7857V10.0714C12.9286 7.79814 13.8316 5.61797 15.4391 4.01051C17.0465 2.40306 19.2267 1.5 21.5 1.5ZM41.5 41.5V39.42C41.5 30.3143 30.9686 24.3571 21.5 24.3571C12.0314 24.3571 1.5 30.3143 1.5 39.42V41.5C1.5 42.2578 1.80102 42.9845 2.33684 43.5203C2.87266 44.0561 3.59938 44.3571 4.35714 44.3571H38.6429C39.4006 44.3571 40.1273 44.0561 40.6632 43.5203C41.199 42.9845 41.5 42.2578 41.5 41.5Z" fill="#A1A5C1" stroke="#F5F4F8" stroke-width="3" stroke-linecap="round" stroke-linejoin="round"/>
</svg>
