<svg width="25" height="34" viewBox="0 0 25 34" fill="none" xmlns="http://www.w3.org/2000/svg">
<path fill-rule="evenodd" clip-rule="evenodd" d="M4.54995 10.625C4.54995 7.26982 7.26982 4.54995 10.625 4.54995C13.9801 4.54995 16.7 7.26982 16.7 10.625C16.7 13.9801 13.9801 16.7 10.625 16.7C7.26982 16.7 4.54995 13.9801 4.54995 10.625ZM10.625 2.94995C6.38617 2.94995 2.94995 6.38617 2.94995 10.625C2.94995 14.8637 6.38617 18.3 10.625 18.3C12.3564 18.3 13.954 17.7266 15.2381 16.7594L20.7056 21.8363C21.0293 22.137 21.5355 22.1182 21.8362 21.7945C22.1368 21.4707 22.1181 20.9645 21.7943 20.6639L16.4122 15.6662C17.5879 14.3177 18.3 12.5545 18.3 10.625C18.3 6.38617 14.8637 2.94995 10.625 2.94995Z" fill="#4466E3"/>
<path d="M10.625 17.4998C14.422 17.4998 17.5 14.4217 17.5 10.6248C17.5 6.8278 14.422 3.74976 10.625 3.74976C6.82804 3.74976 3.75 6.8278 3.75 10.6248C3.75 14.4217 6.82804 17.4998 10.625 17.4998Z" fill="#4466E3" stroke="#4466E3" stroke-width="1.6" stroke-linecap="round" stroke-linejoin="round"/>
<circle cx="12.5" cy="31.5" r="2.5" fill="#4466E3"/>
</svg>
