<svg width="136" height="100" viewBox="0 0 136 100" fill="none" xmlns="http://www.w3.org/2000/svg">
<path d="M136 64.2526C136 70.4978 134.353 76.6339 131.225 82.0501C128.097 87.4658 123.597 91.9729 118.172 95.1218C112.746 98.2712 106.586 99.9523 100.303 99.9984C94.0209 100.044 87.836 98.4539 82.3647 95.3846C78.6863 98.0715 74.3114 99.6554 69.7567 99.9498C65.202 100.244 60.6574 99.2364 56.6602 97.0462C51.7016 99.0111 46.41 100.014 41.0718 99.9999C18.4243 99.9999 0 82.2364 0 60.4008C0 38.5653 18.4243 20.8018 41.0718 20.8018H41.0814C45.5644 13.3663 52.2128 7.45889 60.1467 3.8611C68.0807 0.263321 76.9262 -0.855318 85.5138 0.653175C94.1015 2.16167 102.026 6.22622 108.239 12.3091C114.452 18.392 118.661 26.2066 120.309 34.719C125.162 37.9834 129.132 42.3852 131.868 47.5359C134.605 52.6868 136.024 58.4279 136 64.2526ZM82.0006 86.2223C82.8366 86.2218 83.653 86.4746 84.3409 86.9467C87.3943 89.0323 90.838 90.4881 94.4676 91.228C98.0971 91.9679 101.839 91.9764 105.472 91.2535C109.105 90.5301 112.555 89.0903 115.618 87.0188C118.682 84.9472 121.296 82.2859 123.307 79.1921C125.317 76.0988 126.683 72.6355 127.324 69.008C127.965 65.3805 127.866 61.6619 127.036 58.0729C126.206 54.4835 124.66 51.0963 122.49 48.1111C120.319 45.1262 117.568 42.6042 114.401 40.6944C113.881 40.3807 113.438 39.9567 113.102 39.4529C112.767 38.949 112.547 38.3777 112.46 37.7798C111.39 30.5373 108.036 23.8187 102.883 18.5899C97.729 13.3612 91.04 9.89166 83.7779 8.68031C76.5152 7.46891 69.0537 8.57808 62.4649 11.8482C55.8766 15.1184 50.5015 20.3811 47.1117 26.8798C46.7451 27.5856 46.1795 28.1699 45.484 28.5611C44.7886 28.9524 43.9935 29.1335 43.1961 29.0825C42.3802 29.0325 41.7039 29.0084 41.0683 29.0084C22.9714 29.0084 8.24821 43.0924 8.24821 60.4028C8.24821 77.7132 22.9734 91.7967 41.0683 91.7967C45.9698 91.8122 50.8153 90.7599 55.2637 88.7144C55.9144 88.4155 56.632 88.2899 57.3461 88.3499C58.0603 88.4105 58.7462 88.6548 59.3364 89.0588C62.3198 91.0983 65.9222 92.046 69.5301 91.7406C73.1375 91.4352 76.5268 89.8958 79.1204 87.3842C79.8915 86.6383 80.9249 86.2213 82.0006 86.2223Z" fill="#F5F4F8"/>
<path d="M46.4283 45.8974H40.2948C40.0507 45.8974 39.8167 45.9937 39.6441 46.1652C39.4716 46.3368 39.3747 46.5694 39.3747 46.812V61.1402H39.3903L47.3474 53.2304V46.8125C47.3475 46.57 47.2508 46.3374 47.0784 46.1658C46.9061 45.9942 46.6722 45.8976 46.4283 45.8974Z" fill="#F5F4F8"/>
<path d="M71.5491 39.2141C70.6164 38.2868 69.3508 37.7659 68.0318 37.7659C66.7124 37.7659 65.4473 38.2868 64.5146 39.2141L21.1544 82.3169C26.0244 85.8568 31.7575 88.0395 37.7605 88.6383C43.7635 89.2375 49.8186 88.2318 55.2995 85.7247C55.9501 85.4263 56.6673 85.3011 57.3814 85.3612C58.095 85.4218 58.7809 85.6661 59.3712 86.0696C62.3541 88.1091 65.957 89.0568 69.5643 88.7514C73.1717 88.446 76.5611 86.9061 79.1542 84.3945C79.8391 83.7332 80.7335 83.3277 81.6848 83.2481C82.6367 83.1685 83.5865 83.4188 84.3731 83.957C89.0688 87.172 94.6499 88.8661 100.351 88.806C106.053 88.7459 111.597 86.9357 116.223 83.6226L71.5491 39.2141ZM67.6637 76.5438C67.6637 76.7295 67.5892 76.9078 67.4572 77.0394C67.3248 77.1706 67.1455 77.2447 66.9586 77.2447H61.229C61.0422 77.2447 60.8629 77.1706 60.7304 77.0394C60.598 76.9078 60.524 76.7295 60.524 76.5438V70.8483C60.524 70.6625 60.598 70.4843 60.7304 70.3526C60.8629 70.2215 61.0422 70.1474 61.229 70.1474H66.9586C67.1455 70.1474 67.3248 70.2215 67.4572 70.3526C67.5892 70.4843 67.6637 70.6625 67.6637 70.8483V76.5438ZM67.6637 67.9181C67.6637 68.1039 67.5892 68.2821 67.4572 68.4137C67.3248 68.5454 67.1455 68.619 66.9586 68.619H61.229C61.0422 68.619 60.8629 68.5454 60.7304 68.4137C60.598 68.2821 60.524 68.1039 60.524 67.9181V62.2226C60.524 62.0368 60.598 61.8586 60.7304 61.727C60.8629 61.5958 61.0422 61.5217 61.229 61.5217H66.9586C67.1455 61.5217 67.3248 61.5958 67.4572 61.727C67.5892 61.8586 67.6637 62.0368 67.6637 62.2226V67.9181ZM76.8532 76.5438C76.8532 76.7295 76.7786 76.9078 76.6467 77.0394C76.5142 77.1706 76.3349 77.2447 76.1481 77.2447H70.4185C70.2316 77.2447 70.0524 77.1706 69.9199 77.0394C69.7875 76.9078 69.7134 76.7295 69.7134 76.5438V70.8483C69.7134 70.6625 69.7875 70.4843 69.9199 70.3526C70.0524 70.2215 70.2316 70.1474 70.4185 70.1474H76.1481C76.3349 70.1474 76.5142 70.2215 76.6467 70.3526C76.7786 70.4843 76.8532 70.6625 76.8532 70.8483V76.5438ZM76.8532 67.9181C76.8532 68.1039 76.7786 68.2821 76.6467 68.4137C76.5142 68.5454 76.3349 68.619 76.1481 68.619H70.4185C70.2316 68.619 70.0524 68.5454 69.9199 68.4137C69.7875 68.2821 69.7134 68.1039 69.7134 67.9181V62.2226C69.7134 62.0368 69.7875 61.8586 69.9199 61.727C70.0524 61.5958 70.2316 61.5217 70.4185 61.5217H76.1481C76.3349 61.5217 76.5142 61.5958 76.6467 61.727C76.7786 61.8586 76.8532 62.0368 76.8532 62.2226V67.9181Z" fill="#F5F4F8"/>
</svg>
