<svg width="20" height="20" viewBox="0 0 20 20" fill="none" xmlns="http://www.w3.org/2000/svg">
<path d="M5.83337 7.5L10 10.4167L14.1667 7.5" stroke="#ECEDF3" stroke-width="1.6" stroke-linecap="round" stroke-linejoin="round"/>
<path d="M1.66669 14.1665V5.83317C1.66669 5.39114 1.84228 4.96722 2.15484 4.65466C2.4674 4.3421 2.89133 4.1665 3.33335 4.1665H16.6667C17.1087 4.1665 17.5326 4.3421 17.8452 4.65466C18.1578 4.96722 18.3334 5.39114 18.3334 5.83317V14.1665C18.3334 14.6085 18.1578 15.0325 17.8452 15.345C17.5326 15.6576 17.1087 15.8332 16.6667 15.8332H3.33335C2.89133 15.8332 2.4674 15.6576 2.15484 15.345C1.84228 15.0325 1.66669 14.6085 1.66669 14.1665Z" stroke="#ECEDF3" stroke-width="1.6"/>
</svg>
