<svg width="18" height="18" viewBox="0 0 18 18" fill="none" xmlns="http://www.w3.org/2000/svg">
<path d="M9.35452 10.9193L9.35448 10.9193L9.35351 10.9271C9.33186 11.1027 9.19741 11.2 9.075 11.2C8.87182 11.2 8.74258 11.0259 8.75977 10.8764L7.965 10.785L8.75952 10.8785C8.79791 10.5522 8.86881 10.2695 9.00801 10.0209L9.00802 10.0209L9.0098 10.0177C9.2305 9.61927 9.56515 9.28046 9.99515 8.88137C10.0403 8.83948 10.0869 8.79655 10.1348 8.75255C10.5101 8.40713 10.9569 7.99604 11.2972 7.50978C11.801 6.7945 11.9026 5.80387 11.5387 4.97734C11.1474 4.08853 10.2631 3.475 9.0075 3.475C7.79619 3.475 6.99771 4.12804 6.53486 4.84693L6.53024 4.85411L6.52577 4.86139C6.50869 4.88919 6.4804 4.91392 6.43047 4.92795C6.37791 4.94272 6.31164 4.94141 6.24825 4.9167C6.17321 4.88319 6.11732 4.81876 6.09244 4.74314C6.06825 4.66959 6.07945 4.6087 6.10995 4.5623C6.70237 3.68416 7.6779 3.05 8.9925 3.05C10.4909 3.05 11.4325 3.71967 11.8946 4.47424C12.0867 4.79015 12.2575 5.28201 12.2909 5.81827C12.3241 6.34919 12.22 6.86509 11.9374 7.28424C11.536 7.8762 11.1451 8.26216 10.7666 8.62876C10.747 8.6477 10.7273 8.66678 10.7074 8.68601C10.3563 9.02522 9.95704 9.41094 9.6715 9.9345C9.51372 10.2191 9.41319 10.4792 9.35452 10.9193ZM9.7 15C9.7 15.3832 9.38317 15.7 9 15.7C8.61683 15.7 8.3 15.3832 8.3 15C8.3 14.6168 8.61683 14.3 9 14.3C9.38317 14.3 9.7 14.6168 9.7 15Z" fill="white" stroke="white" stroke-width="1.6"/>
</svg>
