<svg width="20" height="20" viewBox="0 0 20 20" fill="none" xmlns="http://www.w3.org/2000/svg">
<path d="M12.5 3.33333V1.66667V3.33333ZM12.5 3.33333V5V3.33333ZM12.5 3.33333H8.75H12.5ZM2.5 8.33333V15.8333C2.5 16.2754 2.67559 16.6993 2.98816 17.0118C3.30072 17.3244 3.72464 17.5 4.16667 17.5H15.8333C16.2754 17.5 16.6993 17.3244 17.0118 17.0118C17.3244 16.6993 17.5 16.2754 17.5 15.8333V8.33333H2.5Z" stroke="#252B5C" stroke-width="1.6" stroke-linecap="round" stroke-linejoin="round"/>
<path d="M2.5 8.33333V5C2.5 4.55797 2.67559 4.13405 2.98816 3.82149C3.30072 3.50893 3.72464 3.33333 4.16667 3.33333H5.83333" stroke="#252B5C" stroke-width="1.6" stroke-linecap="round" stroke-linejoin="round"/>
<path d="M5.8335 1.66667V5" stroke="#252B5C" stroke-width="1.6" stroke-linecap="round" stroke-linejoin="round"/>
<path d="M17.4998 8.33333V5C17.4998 4.55797 17.3242 4.13405 17.0117 3.82149C16.6991 3.50893 16.2752 3.33333 15.8332 3.33333H15.4165" stroke="#252B5C" stroke-width="1.6" stroke-linecap="round" stroke-linejoin="round"/>
</svg>
