<svg width="20" height="20" viewBox="0 0 20 20" fill="none" xmlns="http://www.w3.org/2000/svg">
<path fill-rule="evenodd" clip-rule="evenodd" d="M10.8088 6.06208C10.8088 5.27661 11.4456 4.63986 12.2311 4.63986C13.0165 4.63986 13.6533 5.27661 13.6533 6.06208C13.6533 6.84755 13.0165 7.4843 12.2311 7.4843C11.4456 7.4843 10.8088 6.84755 10.8088 6.06208ZM9.29315 6.77392L2.71991 6.77384C2.27808 6.77383 1.91992 6.41566 1.91992 5.97383C1.91993 5.532 2.2781 5.17383 2.71993 5.17384L9.34145 5.17392C9.7208 3.93822 10.871 3.03986 12.2311 3.03986C13.5909 3.03986 14.7409 3.9379 15.1205 5.17326L17.2976 5.17306C17.7395 5.17302 18.0977 5.53116 18.0977 5.97299C18.0977 6.41481 17.7396 6.77302 17.2978 6.77306L15.1691 6.77325C14.8493 8.09922 13.6552 9.0843 12.2311 9.0843C10.8071 9.0843 9.6132 8.09955 9.29315 6.77392Z" fill="#252B5C"/>
<path fill-rule="evenodd" clip-rule="evenodd" d="M9.20877 13.8843C9.20877 13.0988 8.57202 12.4621 7.78654 12.4621C7.00107 12.4621 6.36432 13.0988 6.36432 13.8843C6.36432 14.6698 7.00107 15.3065 7.78654 15.3065C8.57202 15.3065 9.20877 14.6698 9.20877 13.8843ZM10.7245 14.5961L17.2977 14.596C17.7395 14.596 18.0977 14.2379 18.0977 13.796C18.0977 13.3542 17.7395 12.996 17.2976 12.996L10.6762 12.9961C10.2968 11.7604 9.14659 10.8621 7.78654 10.8621C6.42675 10.8621 5.2767 11.7601 4.89714 12.9955L2.71994 12.9953C2.27811 12.9952 1.91991 13.3534 1.91987 13.7952C1.91983 14.237 2.27797 14.5952 2.7198 14.5953L4.84848 14.5955C5.16829 15.9214 6.36238 16.9065 7.78654 16.9065C9.21047 16.9065 10.4044 15.9217 10.7245 14.5961Z" fill="#252B5C"/>
</svg>
