<svg width="16" height="16" viewBox="0 0 16 16" fill="none" xmlns="http://www.w3.org/2000/svg">
<path fill-rule="evenodd" clip-rule="evenodd" d="M4.66667 14H6V11.3333C6 10.8029 6.21071 10.2942 6.58579 9.91912C6.96086 9.54405 7.46957 9.33333 8 9.33333C8.53043 9.33333 9.03914 9.54405 9.41421 9.91912C9.78929 10.2942 10 10.8029 10 11.3333V14H11.3333C12.0406 14 12.7189 13.719 13.219 13.219C13.719 12.7189 14 12.0406 14 11.3333V7.138C13.9999 6.67959 13.8816 6.22895 13.6566 5.82957C13.4316 5.43019 13.1074 5.09557 12.7153 4.858L9.382 2.838C8.96526 2.58546 8.48729 2.45194 8 2.45194C7.51271 2.45194 7.03474 2.58546 6.618 2.838L3.28467 4.858C2.89252 5.09563 2.56828 5.43036 2.34325 5.82986C2.11821 6.22936 1.99999 6.68014 2 7.13867V11.3333C2 12.0406 2.28095 12.7189 2.78105 13.219C3.28115 13.719 3.95942 14 4.66667 14Z" fill="#FD5F4A"/>
</svg>
