<svg width="11" height="12" viewBox="0 0 11 12" fill="none" xmlns="http://www.w3.org/2000/svg">
<path d="M9.28031 4.23389L9.2803 4.23218C9.28142 3.69032 9.07322 3.1693 8.69975 2.77841C8.32795 2.39132 7.82451 2.17566 7.30029 2.17551C7.03875 2.17627 6.78002 2.22993 6.53957 2.33331C6.29895 2.43677 6.08155 2.58791 5.90043 2.77774L5.89896 2.77927L5.89896 2.77927L5.78819 2.89414C5.71289 2.97222 5.60911 3.01637 5.50063 3.01647C5.39216 3.01658 5.2883 2.97262 5.21285 2.89468L5.10166 2.77981L5.09905 2.77711L5.09906 2.7771C4.91852 2.58705 4.70144 2.43581 4.46102 2.3325C4.2206 2.22919 3.96181 2.17593 3.70033 2.17593C3.43885 2.17593 3.18006 2.22919 2.93964 2.3325C2.69922 2.43581 2.48214 2.58705 2.30159 2.7771L2.29983 2.77895C1.52718 3.58196 1.52709 4.88399 2.29987 5.68752L9.28031 4.23389ZM9.28031 4.23389C9.28152 4.77567 9.07347 5.29665 8.70017 5.68759C8.35482 6.04673 8.01648 6.40713 7.67985 6.76573C7.00873 7.48064 6.34434 8.18838 5.64443 8.86463C5.56062 8.94325 5.42813 8.93959 5.34922 8.85768C5.34919 8.85765 5.34917 8.85763 5.34914 8.8576L2.29989 5.68753L9.28031 4.23389Z" stroke="#FD5F4A" stroke-width="0.8" stroke-linejoin="round"/>
</svg>
